<?xml version="1.0" encoding="iso-8859-1"?>
<!-- Uploaded to: SVG Repo, www.svgrepo.com, Generator: SVG Repo Mixer Tools -->
<svg fill="#0066cc" height="40px" width="40px" version="1.1" id="Layer_1" xmlns="http://www.w3.org/2000/svg" xmlns:xlink="http://www.w3.org/1999/xlink" 
	 viewBox="0 0 472.65 472.65" xml:space="preserve">
<g transform="translate(0 -540.36)">
	<g>
		<g>
			<circle cx="335.635" cy="866.413" r="7.5"/>
			<circle cx="350.635" cy="835.013" r="7.5"/>
			<path d="M201.24,881.51h-17.6c-3.2-8.7-11.8-15.1-21.6-15.1c-10.4,0-19.4,6.3-22.7,15.1h-17.6c-4.1,0-7.5,3.4-7.5,7.5v69.8
				c0,4.1,3.4,7.5,7.5,7.5h79.5c4.1,0,7.5-3.3,7.5-7.5v-69.8C208.74,884.91,205.34,881.51,201.24,881.51z M193.74,951.31h-64.4
				v-54.8h16.2c4.1,0,7.5-3.4,7.5-7.5c0-4.2,4.1-7.6,9.1-7.6c4.1,0,7.9,3.6,7.9,7.6c0,4.1,3.4,7.5,7.5,7.5h16.2V951.31z"/>
			<path d="M235.64,830.31c0-0.1,0-0.3,0-0.4c-3.7-29-11-57.3-21.8-84.4l-11.8-31.2c-5.9-18.4-9.1-38.6-9.1-56.9v-33.6
				c1.9-1,3.7-2.5,5-4.3c2.2-3,2.9-6.6,2-10l-5.9-54.1c-0.1-0.9-0.4-1.8-0.8-2.6c-1.2-2.3-3.3-6.5-7.8-8.1c-0.8-0.7-1.8-1.2-2.9-1.5
				c-14.3-3.8-28.7-3.8-43,0c-1.1,0.3-2.1,0.8-2.9,1.6c-4.2,1.5-7.2,5.7-7.3,10.9l-7.1,54.3c0,0.3-0.1,0.6-0.1,1
				c0,6,3.4,11.2,8.3,13.4v33.2c0,19.4-3.6,39.5-10.2,56.7l-11.9,31.5c-11.6,31.9-19.1,65.6-22.9,103c0,0.1,0,0.1,0,0.2
				c-2.7,32.9-3.5,61.7-2.4,88v63.8c0,3.9,2.9,7.1,6.8,7.5l11.8,1.2c19.9,2.4,39.7,3.5,59.7,3.5c19.9,0,40-1.2,60.5-3.5l11.8-1.2
				c3.8-0.4,6.8-3.6,6.8-7.5v-64C240.34,900.41,237.94,864.81,235.64,830.31L235.64,830.31z M144.14,558.11c0.4-0.2,0.8-0.5,1.2-0.9
				c10.5-2.5,21.1-2.5,31.6,0c0.7,0.6,1.5,1.1,2.4,1.4l5.6,51.8h-47h-0.7L144.14,558.11z M134.24,719.61c7.2-18.8,11.2-40.9,11.2-62
				v-32.2l0.1,0h32.4v32.1c0,19.8,3.5,41.7,9.8,61.6c0,0.1,0.1,0.3,0.1,0.4l1.8,4.8l-27.7,16.5l-29.3-16.9L134.24,719.61z
				 M122.44,750.91L122.44,750.91l4.9-12.9l34.8,20.1l33-19.6l4.7,12.4c0,0,0,0.1,0.1,0.1c0.4,0.9,0.7,1.8,1.1,2.8l-39.4,25.1
				l-39.9-25.4C121.84,752.61,122.14,751.71,122.44,750.91z M220.24,994.41h-0.1c-39.9,4.6-78.1,4.6-116.8,0c-0.1,0-0.1,0-0.2,0
				l-5.1-0.5v-57.2c0-0.1,0-0.2,0-0.3c-1.1-25.8-0.3-54,2.3-86.3c3-29.4,8.4-56.4,16.3-82l44.8,28.6l44.6-28.5
				c6.9,20.5,11.8,41.8,14.5,63.3c2.3,34.1,4.7,69.4,4.7,105.1v57.3l0.1,0L220.24,994.41z"/>
			<path d="M388.54,740.71c-0.3-3.9-3.6-6.9-7.5-6.9h-77.1c-4,0-7.3,3.2-7.5,7.2c-0.8,18.8-0.5,38.4-0.3,57.3
				c0.1,9.5,0.3,19.4,0.3,29.1c0,23.8,4.2,46.2,11.8,63c7,15.5,16.5,25.3,27.4,28.4v79.1h-24.5c-4.1,0-7.5,3.4-7.5,7.5
				s3.4,7.5,7.5,7.5h62.9c4.1,0,7.5-3.4,7.5-7.5s-3.4-7.5-7.5-7.5h-23.3v-79.3c22.5-6.9,39.1-44.5,39.1-91.3
				c0-6.2,0.1-12.5,0.1-19.3C390.14,787.41,390.44,763.91,388.54,740.71z M374.84,827.41c0,44.3-16.7,77.4-31.7,77.4
				c-15.3,0-31.6-31.1-31.6-77.4c0-5.2,0-10.5-0.1-15.8h63.5C374.84,817.01,374.84,822.31,374.84,827.41z M375.04,796.61h-63.8
				c-0.2-16.5-0.4-32.3,0-47.8h62.9C375.14,765.11,375.14,781.41,375.04,796.61z"/>
		</g>
	</g>
</g>
</svg>